<?xml version="1.0" standalone="no"?>
<!DOCTYPE svg PUBLIC "-//W3C//DTD SVG 20010904//EN"
 "http://www.w3.org/TR/2001/REC-SVG-20010904/DTD/svg10.dtd">
<svg version="1.0" xmlns="http://www.w3.org/2000/svg"
 width="512.000000pt" height="512.000000pt" viewBox="0 0 512.000000 512.000000"
 preserveAspectRatio="xMidYMid meet">

<g transform="translate(0.000000,512.000000) scale(0.100000,-0.100000)"
fill="#000000" stroke="none">
<path d="M2450 4154 c6 -14 10 -60 10 -102 0 -65 -5 -85 -28 -127 -34 -62 -64
-68 -73 -15 -4 19 -7 28 -8 20 -2 -24 -61 -81 -105 -101 -72 -33 -142 -23
-212 28 -22 16 -45 23 -77 23 -29 0 -66 9 -97 24 l-50 24 -33 -22 c-79 -54
-247 -240 -321 -355 -22 -34 -26 -50 -21 -75 13 -58 17 -208 6 -219 -6 -6 -11
-24 -11 -39 0 -53 -85 -198 -155 -264 -83 -78 -87 -98 -86 -354 1 -239 12
-295 61 -321 60 -32 108 -85 135 -145 9 -22 23 -51 31 -66 8 -14 14 -37 14
-50 0 -13 6 -30 12 -36 17 -17 15 -156 -2 -177 -17 -20 -19 -96 -2 -115 6 -8
38 -51 69 -95 89 -125 316 -337 275 -257 -11 20 -5 44 15 55 8 5 12 16 9 25
-3 9 -2 23 2 29 10 16 72 -44 76 -73 3 -23 38 -41 105 -54 27 -5 58 -13 68
-19 10 -5 36 -17 58 -27 22 -11 46 -25 53 -31 7 -7 17 -13 21 -13 13 0 81 -73
81 -87 0 -7 3 -13 8 -13 4 0 18 -18 31 -40 24 -38 25 -39 99 -46 83 -7 398 0
423 10 8 4 30 37 47 74 17 37 46 81 64 98 38 36 142 94 169 94 10 0 21 5 24
10 14 23 110 7 173 -28 20 -12 27 -10 65 20 62 48 169 156 212 213 21 28 41
52 45 55 4 3 23 31 44 63 34 54 36 61 26 95 -15 57 -12 190 6 247 26 80 96
216 129 249 17 17 45 43 64 57 34 25 34 26 43 134 10 127 3 419 -12 461 -7 19
-24 36 -49 48 -22 10 -53 33 -69 50 -34 35 -92 140 -92 165 0 10 -5 22 -11 28
-7 7 -14 56 -17 111 -4 79 -1 107 12 132 17 35 21 66 9 72 -5 2 -30 37 -57 78
-59 89 -144 191 -206 246 -25 21 -55 49 -67 61 -24 25 -43 29 -60 12 -19 -19
-115 -23 -157 -5 -21 9 -49 16 -61 16 -24 0 -138 57 -143 71 -2 5 -10 9 -17 9
-17 0 -95 79 -95 96 0 8 -4 14 -8 14 -5 0 -14 11 -20 25 -20 43 -69 55 -233
55 l-149 0 10 -26z m250 -345 c25 -6 63 -14 85 -18 22 -4 50 -13 62 -19 12 -7
31 -12 41 -12 36 0 259 -126 270 -152 2 -5 8 -8 14 -8 25 0 268 -268 268 -296
0 -4 11 -22 25 -40 14 -18 25 -39 25 -46 0 -7 7 -22 15 -32 8 -11 15 -28 15
-37 0 -10 3 -19 8 -21 10 -5 72 -193 72 -221 0 -14 7 -44 15 -67 18 -52 21
-385 4 -440 -6 -19 -15 -57 -19 -85 -13 -79 -36 -160 -58 -202 -11 -21 -34
-66 -51 -101 -61 -122 -116 -199 -213 -300 -58 -59 -186 -162 -203 -162 -2 0
-23 -13 -47 -28 -97 -63 -221 -102 -363 -114 -120 -10 -110 -10 -215 1 -120
14 -180 33 -350 114 -41 20 -100 58 -129 84 -113 99 -231 228 -231 252 0 6 -5
11 -10 11 -6 0 -15 10 -20 23 -10 23 -31 58 -40 67 -7 7 -43 85 -83 180 -8 19
-20 55 -27 80 -6 25 -17 65 -25 90 -37 125 -37 464 1 600 23 81 45 152 53 175
19 50 106 215 113 215 4 0 8 4 8 9 0 40 225 291 261 291 5 0 9 4 9 9 0 5 33
29 73 53 72 44 93 55 157 81 19 8 49 20 65 27 17 6 53 16 80 22 28 5 68 13 90
17 57 12 202 12 255 0z m-712 -2262 c3 -21 9 -27 28 -27 29 0 33 -26 7 -46
-29 -22 -60 -16 -81 14 -15 21 -17 33 -10 52 17 47 51 51 56 7z m-61 -129 c18
-21 -1 -35 -24 -17 -23 20 -32 52 -20 74 10 19 11 18 20 -10 5 -17 16 -37 24
-47z"/>
<path d="M2337 4154 c-4 -4 2 -19 12 -33 10 -14 23 -55 29 -91 l9 -65 2 73 c1
52 -4 80 -15 97 -17 25 -26 30 -37 19z"/>
<path d="M2269 4090 c-1 -8 -3 -34 -4 -57 -2 -62 -34 -93 -96 -93 -49 0 -72
-15 -48 -31 8 -5 35 -9 60 -9 38 0 53 6 78 29 28 26 31 35 31 88 0 32 -5 65
-10 73 -9 13 -10 13 -11 0z"/>
<path d="M1830 1366 c0 -17 14 -29 23 -20 8 8 -3 34 -14 34 -5 0 -9 -6 -9 -14z"/>
</g>
</svg>
